<mxfile host="app.diagrams.net" modified="2021-04-28T08:51:09.801Z" agent="5.0 (Windows NT 10.0; Win64; x64) AppleWebKit/537.36 (KHTML, like Gecko) Chrome/89.0.4389.114 Safari/537.36 Edg/89.0.774.68" etag="P0AzSgsoN2V1TWxJSWV-" version="14.6.6" type="github">
  <diagram id="TG9kcm4u9L2O6oKul7aN" name="Page-1">
    <mxGraphModel dx="782" dy="525" grid="1" gridSize="10" guides="1" tooltips="1" connect="1" arrows="1" fold="1" page="1" pageScale="1" pageWidth="827" pageHeight="1169" math="0" shadow="0">
      <root>
        <mxCell id="0" />
        <mxCell id="1" parent="0" />
        <mxCell id="IZYYIp1TsckfkI5Btefb-1" value="" style="shape=cylinder3;whiteSpace=wrap;html=1;boundedLbl=1;backgroundOutline=1;size=15;" vertex="1" parent="1">
          <mxGeometry x="200" y="200" width="60" height="80" as="geometry" />
        </mxCell>
        <mxCell id="IZYYIp1TsckfkI5Btefb-2" value="" style="shape=document;whiteSpace=wrap;html=1;boundedLbl=1;" vertex="1" parent="1">
          <mxGeometry x="414" y="190" width="120" height="80" as="geometry" />
        </mxCell>
      </root>
    </mxGraphModel>
  </diagram>
</mxfile>
